<?xml version="1.0" encoding="UTF-8" standalone="no"?>
<!DOCTYPE svg PUBLIC "-//W3C//DTD SVG 1.1//EN"
 "http://www.w3.org/Graphics/SVG/1.1/DTD/svg11.dtd">
<!-- Generated by graphviz version 2.47.1 (20210417.1919)
 -->
<!-- Title: D Pages: 1 -->
<svg width="2682pt" height="335pt"
 viewBox="0.00 0.00 2682.00 335.00" xmlns="http://www.w3.org/2000/svg" xmlns:xlink="http://www.w3.org/1999/xlink">
<g id="graph0" class="graph" transform="scale(1 1) rotate(0) translate(4 331)">
<title>D</title>
<polygon fill="white" stroke="transparent" points="-4,4 -4,-331 2678,-331 2678,4 -4,4"/>
<!-- TIVUKQDH -->
<g id="node1" class="node">
<title>TIVUKQDH</title>
<ellipse fill="none" stroke="black" cx="871.5" cy="-309" rx="18" ry="18"/>
</g>
<!-- YJIPQVYH -->
<g id="node2" class="node">
<title>YJIPQVYH</title>
<ellipse fill="none" stroke="black" cx="487.5" cy="-237" rx="18" ry="18"/>
</g>
<!-- TIVUKQDH&#45;&gt;YJIPQVYH -->
<g id="edge1" class="edge">
<title>TIVUKQDH&#45;&gt;YJIPQVYH</title>
<path fill="none" stroke="black" d="M853.75,-304.76C792.45,-293.59 589.38,-256.57 515.06,-243.02"/>
<polygon fill="black" stroke="black" points="515.53,-239.55 505.06,-241.2 514.27,-246.43 515.53,-239.55"/>
</g>
<!-- ZHHUPGBO -->
<g id="node23" class="node">
<title>ZHHUPGBO</title>
<ellipse fill="none" stroke="black" cx="1366.5" cy="-237" rx="18" ry="18"/>
</g>
<!-- TIVUKQDH&#45;&gt;ZHHUPGBO -->
<g id="edge22" class="edge">
<title>TIVUKQDH&#45;&gt;ZHHUPGBO</title>
<path fill="none" stroke="black" d="M889.41,-305.46C963.69,-294.96 1247.9,-254.77 1338.55,-241.95"/>
<polygon fill="black" stroke="black" points="1339.2,-245.39 1348.61,-240.53 1338.22,-238.46 1339.2,-245.39"/>
</g>
<!-- BWFGAPHR -->
<g id="node3" class="node">
<title>BWFGAPHR</title>
<ellipse fill="none" stroke="black" cx="161.5" cy="-165" rx="18" ry="18"/>
</g>
<!-- YJIPQVYH&#45;&gt;BWFGAPHR -->
<g id="edge2" class="edge">
<title>YJIPQVYH&#45;&gt;BWFGAPHR</title>
<path fill="none" stroke="black" d="M469.97,-232.23C416.35,-220.72 254.23,-185.91 189.06,-171.91"/>
<polygon fill="black" stroke="black" points="189.62,-168.46 179.11,-169.78 188.15,-175.3 189.62,-168.46"/>
</g>
<!-- AAKZCVPF -->
<g id="node10" class="node">
<title>AAKZCVPF</title>
<ellipse fill="none" stroke="black" cx="487.5" cy="-165" rx="18" ry="18"/>
</g>
<!-- YJIPQVYH&#45;&gt;AAKZCVPF -->
<g id="edge9" class="edge">
<title>YJIPQVYH&#45;&gt;AAKZCVPF</title>
<path fill="none" stroke="black" d="M487.5,-218.69C487.5,-210.98 487.5,-201.71 487.5,-193.11"/>
<polygon fill="black" stroke="black" points="491,-193.1 487.5,-183.1 484,-193.1 491,-193.1"/>
</g>
<!-- OFSYBPGJ -->
<g id="node4" class="node">
<title>OFSYBPGJ</title>
<ellipse fill="none" stroke="black" cx="76.5" cy="-93" rx="18" ry="18"/>
</g>
<!-- BWFGAPHR&#45;&gt;OFSYBPGJ -->
<g id="edge3" class="edge">
<title>BWFGAPHR&#45;&gt;OFSYBPGJ</title>
<path fill="none" stroke="black" d="M147.84,-152.75C134.46,-141.73 113.85,-124.76 98.22,-111.88"/>
<polygon fill="black" stroke="black" points="100.07,-108.87 90.12,-105.22 95.62,-114.27 100.07,-108.87"/>
</g>
<!-- YMZAVGYN -->
<g id="node7" class="node">
<title>YMZAVGYN</title>
<ellipse fill="none" stroke="black" cx="161.5" cy="-93" rx="18" ry="18"/>
</g>
<!-- BWFGAPHR&#45;&gt;YMZAVGYN -->
<g id="edge6" class="edge">
<title>BWFGAPHR&#45;&gt;YMZAVGYN</title>
<path fill="none" stroke="black" d="M161.5,-146.69C161.5,-138.98 161.5,-129.71 161.5,-121.11"/>
<polygon fill="black" stroke="black" points="165,-121.1 161.5,-111.1 158,-121.1 165,-121.1"/>
</g>
<!-- JMRMSIIA -->
<g id="node5" class="node">
<title>JMRMSIIA</title>
<ellipse fill="none" stroke="black" cx="19.5" cy="-19.5" rx="19.5" ry="19.5"/>
<text text-anchor="middle" x="19.5" y="-15.8" font-family="Times,serif" font-size="14.00">10</text>
</g>
<!-- OFSYBPGJ&#45;&gt;JMRMSIIA -->
<g id="edge4" class="edge">
<title>OFSYBPGJ&#45;&gt;JMRMSIIA</title>
<path fill="none" stroke="black" d="M65.51,-78.21C57.59,-68.28 46.74,-54.67 37.56,-43.16"/>
<polygon fill="black" stroke="black" points="40.21,-40.86 31.24,-35.23 34.74,-45.23 40.21,-40.86"/>
</g>
<!-- FVPNUXDE -->
<g id="node6" class="node">
<title>FVPNUXDE</title>
<ellipse fill="none" stroke="black" cx="76.5" cy="-19.5" rx="19.5" ry="19.5"/>
<text text-anchor="middle" x="76.5" y="-15.8" font-family="Times,serif" font-size="14.00">14</text>
</g>
<!-- OFSYBPGJ&#45;&gt;FVPNUXDE -->
<g id="edge5" class="edge">
<title>OFSYBPGJ&#45;&gt;FVPNUXDE</title>
<path fill="none" stroke="black" d="M76.5,-74.69C76.5,-67.05 76.5,-57.86 76.5,-49.24"/>
<polygon fill="black" stroke="black" points="80,-49.15 76.5,-39.15 73,-49.15 80,-49.15"/>
</g>
<!-- COXQFIQW -->
<g id="node8" class="node">
<title>COXQFIQW</title>
<ellipse fill="none" stroke="black" cx="133.5" cy="-19.5" rx="19.5" ry="19.5"/>
<text text-anchor="middle" x="133.5" y="-15.8" font-family="Times,serif" font-size="14.00">10</text>
</g>
<!-- YMZAVGYN&#45;&gt;COXQFIQW -->
<g id="edge7" class="edge">
<title>YMZAVGYN&#45;&gt;COXQFIQW</title>
<path fill="none" stroke="black" d="M155.14,-75.77C151.86,-67.39 147.77,-56.95 144.04,-47.41"/>
<polygon fill="black" stroke="black" points="147.22,-45.94 140.32,-37.91 140.7,-48.5 147.22,-45.94"/>
</g>
<!-- MJWBMJNV -->
<g id="node9" class="node">
<title>MJWBMJNV</title>
<ellipse fill="none" stroke="black" cx="188.5" cy="-19.5" rx="18" ry="18"/>
<text text-anchor="middle" x="188.5" y="-15.8" font-family="Times,serif" font-size="14.00">6</text>
</g>
<!-- YMZAVGYN&#45;&gt;MJWBMJNV -->
<g id="edge8" class="edge">
<title>YMZAVGYN&#45;&gt;MJWBMJNV</title>
<path fill="none" stroke="black" d="M167.62,-75.77C170.94,-67 175.11,-55.96 178.85,-46.05"/>
<polygon fill="black" stroke="black" points="182.14,-47.25 182.4,-36.66 175.59,-44.78 182.14,-47.25"/>
</g>
<!-- PPSTCRFJ -->
<g id="node11" class="node">
<title>PPSTCRFJ</title>
<ellipse fill="none" stroke="black" cx="350.5" cy="-93" rx="18" ry="18"/>
</g>
<!-- AAKZCVPF&#45;&gt;PPSTCRFJ -->
<g id="edge10" class="edge">
<title>AAKZCVPF&#45;&gt;PPSTCRFJ</title>
<path fill="none" stroke="black" d="M471.78,-155.97C448.27,-143.95 403.7,-121.18 375.63,-106.84"/>
<polygon fill="black" stroke="black" points="376.95,-103.58 366.45,-102.15 373.77,-109.82 376.95,-103.58"/>
</g>
<!-- UDPQWSJW -->
<g id="node16" class="node">
<title>UDPQWSJW</title>
<ellipse fill="none" stroke="black" cx="487.5" cy="-93" rx="18" ry="18"/>
</g>
<!-- AAKZCVPF&#45;&gt;UDPQWSJW -->
<g id="edge15" class="edge">
<title>AAKZCVPF&#45;&gt;UDPQWSJW</title>
<path fill="none" stroke="black" d="M487.5,-146.69C487.5,-138.98 487.5,-129.71 487.5,-121.11"/>
<polygon fill="black" stroke="black" points="491,-121.1 487.5,-111.1 484,-121.1 491,-121.1"/>
</g>
<!-- TTKUJCAD -->
<g id="node19" class="node">
<title>TTKUJCAD</title>
<ellipse fill="none" stroke="black" cx="597.5" cy="-93" rx="18" ry="18"/>
</g>
<!-- AAKZCVPF&#45;&gt;TTKUJCAD -->
<g id="edge18" class="edge">
<title>AAKZCVPF&#45;&gt;TTKUJCAD</title>
<path fill="none" stroke="black" d="M502.33,-154.56C520.7,-142.87 552.22,-122.81 573.92,-109"/>
<polygon fill="black" stroke="black" points="575.99,-111.83 582.55,-103.51 572.23,-105.93 575.99,-111.83"/>
</g>
<!-- BLFMZMSB -->
<g id="node12" class="node">
<title>BLFMZMSB</title>
<ellipse fill="none" stroke="black" cx="242.5" cy="-19.5" rx="18" ry="18"/>
<text text-anchor="middle" x="242.5" y="-15.8" font-family="Times,serif" font-size="14.00">1</text>
</g>
<!-- PPSTCRFJ&#45;&gt;BLFMZMSB -->
<g id="edge11" class="edge">
<title>PPSTCRFJ&#45;&gt;BLFMZMSB</title>
<path fill="none" stroke="black" d="M335.8,-82.52C319.53,-71.98 292.54,-54.42 269.5,-39 268.23,-38.15 266.93,-37.27 265.62,-36.39"/>
<polygon fill="black" stroke="black" points="267.27,-33.27 257.03,-30.54 263.33,-39.06 267.27,-33.27"/>
</g>
<!-- KAANXFFL -->
<g id="node13" class="node">
<title>KAANXFFL</title>
<ellipse fill="none" stroke="black" cx="296.5" cy="-19.5" rx="18" ry="18"/>
<text text-anchor="middle" x="296.5" y="-15.8" font-family="Times,serif" font-size="14.00">4</text>
</g>
<!-- PPSTCRFJ&#45;&gt;KAANXFFL -->
<g id="edge12" class="edge">
<title>PPSTCRFJ&#45;&gt;KAANXFFL</title>
<path fill="none" stroke="black" d="M340.09,-78.21C332.39,-68.02 321.76,-53.95 312.93,-42.25"/>
<polygon fill="black" stroke="black" points="315.7,-40.11 306.88,-34.24 310.11,-44.33 315.7,-40.11"/>
</g>
<!-- EBQBAQIA -->
<g id="node14" class="node">
<title>EBQBAQIA</title>
<ellipse fill="none" stroke="black" cx="350.5" cy="-19.5" rx="18" ry="18"/>
<text text-anchor="middle" x="350.5" y="-15.8" font-family="Times,serif" font-size="14.00">7</text>
</g>
<!-- PPSTCRFJ&#45;&gt;EBQBAQIA -->
<g id="edge13" class="edge">
<title>PPSTCRFJ&#45;&gt;EBQBAQIA</title>
<path fill="none" stroke="black" d="M350.5,-74.69C350.5,-66.61 350.5,-56.8 350.5,-47.76"/>
<polygon fill="black" stroke="black" points="354,-47.65 350.5,-37.65 347,-47.65 354,-47.65"/>
</g>
<!-- AOIHJSSQ -->
<g id="node15" class="node">
<title>AOIHJSSQ</title>
<ellipse fill="none" stroke="black" cx="404.5" cy="-19.5" rx="18" ry="18"/>
<text text-anchor="middle" x="404.5" y="-15.8" font-family="Times,serif" font-size="14.00">6</text>
</g>
<!-- PPSTCRFJ&#45;&gt;AOIHJSSQ -->
<g id="edge14" class="edge">
<title>PPSTCRFJ&#45;&gt;AOIHJSSQ</title>
<path fill="none" stroke="black" d="M360.91,-78.21C368.6,-68.02 379.23,-53.95 388.07,-42.25"/>
<polygon fill="black" stroke="black" points="390.88,-44.33 394.12,-34.24 385.3,-40.11 390.88,-44.33"/>
</g>
<!-- KVCUAIQA -->
<g id="node17" class="node">
<title>KVCUAIQA</title>
<ellipse fill="none" stroke="black" cx="459.5" cy="-19.5" rx="19.5" ry="19.5"/>
<text text-anchor="middle" x="459.5" y="-15.8" font-family="Times,serif" font-size="14.00">14</text>
</g>
<!-- UDPQWSJW&#45;&gt;KVCUAIQA -->
<g id="edge16" class="edge">
<title>UDPQWSJW&#45;&gt;KVCUAIQA</title>
<path fill="none" stroke="black" d="M481.14,-75.77C477.86,-67.39 473.77,-56.95 470.04,-47.41"/>
<polygon fill="black" stroke="black" points="473.22,-45.94 466.32,-37.91 466.7,-48.5 473.22,-45.94"/>
</g>
<!-- ZOOBDJTF -->
<g id="node18" class="node">
<title>ZOOBDJTF</title>
<ellipse fill="none" stroke="black" cx="514.5" cy="-19.5" rx="18" ry="18"/>
<text text-anchor="middle" x="514.5" y="-15.8" font-family="Times,serif" font-size="14.00">2</text>
</g>
<!-- UDPQWSJW&#45;&gt;ZOOBDJTF -->
<g id="edge17" class="edge">
<title>UDPQWSJW&#45;&gt;ZOOBDJTF</title>
<path fill="none" stroke="black" d="M493.62,-75.77C496.94,-67 501.11,-55.96 504.85,-46.05"/>
<polygon fill="black" stroke="black" points="508.14,-47.25 508.4,-36.66 501.59,-44.78 508.14,-47.25"/>
</g>
<!-- MDIYGSYW -->
<g id="node20" class="node">
<title>MDIYGSYW</title>
<ellipse fill="none" stroke="black" cx="569.5" cy="-19.5" rx="19.5" ry="19.5"/>
<text text-anchor="middle" x="569.5" y="-15.8" font-family="Times,serif" font-size="14.00">10</text>
</g>
<!-- TTKUJCAD&#45;&gt;MDIYGSYW -->
<g id="edge19" class="edge">
<title>TTKUJCAD&#45;&gt;MDIYGSYW</title>
<path fill="none" stroke="black" d="M591.14,-75.77C587.86,-67.39 583.77,-56.95 580.04,-47.41"/>
<polygon fill="black" stroke="black" points="583.22,-45.94 576.32,-37.91 576.7,-48.5 583.22,-45.94"/>
</g>
<!-- XZODHZFU -->
<g id="node21" class="node">
<title>XZODHZFU</title>
<ellipse fill="none" stroke="black" cx="624.5" cy="-19.5" rx="18" ry="18"/>
<text text-anchor="middle" x="624.5" y="-15.8" font-family="Times,serif" font-size="14.00">7</text>
</g>
<!-- TTKUJCAD&#45;&gt;XZODHZFU -->
<g id="edge20" class="edge">
<title>TTKUJCAD&#45;&gt;XZODHZFU</title>
<path fill="none" stroke="black" d="M603.62,-75.77C606.94,-67 611.11,-55.96 614.85,-46.05"/>
<polygon fill="black" stroke="black" points="618.14,-47.25 618.4,-36.66 611.59,-44.78 618.14,-47.25"/>
</g>
<!-- NXVMVYOV -->
<g id="node22" class="node">
<title>NXVMVYOV</title>
<ellipse fill="none" stroke="black" cx="678.5" cy="-19.5" rx="18" ry="18"/>
<text text-anchor="middle" x="678.5" y="-15.8" font-family="Times,serif" font-size="14.00">8</text>
</g>
<!-- TTKUJCAD&#45;&gt;NXVMVYOV -->
<g id="edge21" class="edge">
<title>TTKUJCAD&#45;&gt;NXVMVYOV</title>
<path fill="none" stroke="black" d="M610.51,-80.51C623.19,-69.32 642.67,-52.12 657.54,-39"/>
<polygon fill="black" stroke="black" points="660.07,-41.44 665.25,-32.19 655.43,-36.19 660.07,-41.44"/>
</g>
<!-- CLXCAYSX -->
<g id="node24" class="node">
<title>CLXCAYSX</title>
<ellipse fill="none" stroke="black" cx="979.5" cy="-165" rx="18" ry="18"/>
</g>
<!-- ZHHUPGBO&#45;&gt;CLXCAYSX -->
<g id="edge23" class="edge">
<title>ZHHUPGBO&#45;&gt;CLXCAYSX</title>
<path fill="none" stroke="black" d="M1348.86,-232.81C1287.42,-221.69 1082.39,-184.61 1007.33,-171.03"/>
<polygon fill="black" stroke="black" points="1007.7,-167.54 997.24,-169.2 1006.45,-174.43 1007.7,-167.54"/>
</g>
<!-- NBYTVKMW -->
<g id="node33" class="node">
<title>NBYTVKMW</title>
<ellipse fill="none" stroke="black" cx="1366.5" cy="-165" rx="18" ry="18"/>
</g>
<!-- ZHHUPGBO&#45;&gt;NBYTVKMW -->
<g id="edge32" class="edge">
<title>ZHHUPGBO&#45;&gt;NBYTVKMW</title>
<path fill="none" stroke="black" d="M1366.5,-218.69C1366.5,-210.98 1366.5,-201.71 1366.5,-193.11"/>
<polygon fill="black" stroke="black" points="1370,-193.1 1366.5,-183.1 1363,-193.1 1370,-193.1"/>
</g>
<!-- IAJAKTSV -->
<g id="node50" class="node">
<title>IAJAKTSV</title>
<ellipse fill="none" stroke="black" cx="1865.5" cy="-165" rx="18" ry="18"/>
</g>
<!-- ZHHUPGBO&#45;&gt;IAJAKTSV -->
<g id="edge49" class="edge">
<title>ZHHUPGBO&#45;&gt;IAJAKTSV</title>
<path fill="none" stroke="black" d="M1384.26,-233.51C1458.75,-223.06 1746.34,-182.71 1837.57,-169.91"/>
<polygon fill="black" stroke="black" points="1838.27,-173.35 1847.69,-168.49 1837.3,-166.42 1838.27,-173.35"/>
</g>
<!-- OAXMAFQA -->
<g id="node64" class="node">
<title>OAXMAFQA</title>
<ellipse fill="none" stroke="black" cx="2378.5" cy="-165" rx="18" ry="18"/>
</g>
<!-- ZHHUPGBO&#45;&gt;OAXMAFQA -->
<g id="edge63" class="edge">
<title>ZHHUPGBO&#45;&gt;OAXMAFQA</title>
<path fill="none" stroke="black" d="M1384.49,-234.75C1505.57,-226.38 2201.15,-178.26 2350.33,-167.94"/>
<polygon fill="black" stroke="black" points="2350.75,-171.42 2360.49,-167.24 2350.27,-164.44 2350.75,-171.42"/>
</g>
<!-- GFVLGLLE -->
<g id="node25" class="node">
<title>GFVLGLLE</title>
<ellipse fill="none" stroke="black" cx="843.5" cy="-93" rx="18" ry="18"/>
</g>
<!-- CLXCAYSX&#45;&gt;GFVLGLLE -->
<g id="edge24" class="edge">
<title>CLXCAYSX&#45;&gt;GFVLGLLE</title>
<path fill="none" stroke="black" d="M963.9,-155.97C940.56,-143.95 896.31,-121.18 868.45,-106.84"/>
<polygon fill="black" stroke="black" points="869.83,-103.61 859.34,-102.15 866.63,-109.84 869.83,-103.61"/>
</g>
<!-- MQPQOJGR -->
<g id="node30" class="node">
<title>MQPQOJGR</title>
<ellipse fill="none" stroke="black" cx="979.5" cy="-93" rx="18" ry="18"/>
</g>
<!-- CLXCAYSX&#45;&gt;MQPQOJGR -->
<g id="edge29" class="edge">
<title>CLXCAYSX&#45;&gt;MQPQOJGR</title>
<path fill="none" stroke="black" d="M979.5,-146.69C979.5,-138.98 979.5,-129.71 979.5,-121.11"/>
<polygon fill="black" stroke="black" points="983,-121.1 979.5,-111.1 976,-121.1 983,-121.1"/>
</g>
<!-- KZNJPJBL -->
<g id="node26" class="node">
<title>KZNJPJBL</title>
<ellipse fill="none" stroke="black" cx="733.5" cy="-19.5" rx="19.5" ry="19.5"/>
<text text-anchor="middle" x="733.5" y="-15.8" font-family="Times,serif" font-size="14.00">15</text>
</g>
<!-- GFVLGLLE&#45;&gt;KZNJPJBL -->
<g id="edge25" class="edge">
<title>GFVLGLLE&#45;&gt;KZNJPJBL</title>
<path fill="none" stroke="black" d="M828.66,-82.47C812.21,-71.89 784.91,-54.3 761.5,-39 760.4,-38.28 759.28,-37.55 758.15,-36.8"/>
<polygon fill="black" stroke="black" points="759.75,-33.67 749.47,-31.09 755.9,-39.51 759.75,-33.67"/>
</g>
<!-- SHVWOUXI -->
<g id="node27" class="node">
<title>SHVWOUXI</title>
<ellipse fill="none" stroke="black" cx="788.5" cy="-19.5" rx="18" ry="18"/>
<text text-anchor="middle" x="788.5" y="-15.8" font-family="Times,serif" font-size="14.00">7</text>
</g>
<!-- GFVLGLLE&#45;&gt;SHVWOUXI -->
<g id="edge26" class="edge">
<title>GFVLGLLE&#45;&gt;SHVWOUXI</title>
<path fill="none" stroke="black" d="M832.89,-78.21C825.06,-68.02 814.23,-53.95 805.23,-42.25"/>
<polygon fill="black" stroke="black" points="807.94,-40.03 799.07,-34.24 802.39,-44.3 807.94,-40.03"/>
</g>
<!-- DQPBDJIH -->
<g id="node28" class="node">
<title>DQPBDJIH</title>
<ellipse fill="none" stroke="black" cx="843.5" cy="-19.5" rx="19.5" ry="19.5"/>
<text text-anchor="middle" x="843.5" y="-15.8" font-family="Times,serif" font-size="14.00">10</text>
</g>
<!-- GFVLGLLE&#45;&gt;DQPBDJIH -->
<g id="edge27" class="edge">
<title>GFVLGLLE&#45;&gt;DQPBDJIH</title>
<path fill="none" stroke="black" d="M843.5,-74.69C843.5,-67.05 843.5,-57.86 843.5,-49.24"/>
<polygon fill="black" stroke="black" points="847,-49.15 843.5,-39.15 840,-49.15 847,-49.15"/>
</g>
<!-- ZEWGIQPN -->
<g id="node29" class="node">
<title>ZEWGIQPN</title>
<ellipse fill="none" stroke="black" cx="898.5" cy="-19.5" rx="18" ry="18"/>
<text text-anchor="middle" x="898.5" y="-15.8" font-family="Times,serif" font-size="14.00">2</text>
</g>
<!-- GFVLGLLE&#45;&gt;ZEWGIQPN -->
<g id="edge28" class="edge">
<title>GFVLGLLE&#45;&gt;ZEWGIQPN</title>
<path fill="none" stroke="black" d="M854.1,-78.21C861.94,-68.02 872.77,-53.95 881.77,-42.25"/>
<polygon fill="black" stroke="black" points="884.6,-44.3 887.93,-34.24 879.05,-40.03 884.6,-44.3"/>
</g>
<!-- BRJPHQHS -->
<g id="node31" class="node">
<title>BRJPHQHS</title>
<ellipse fill="none" stroke="black" cx="952.5" cy="-19.5" rx="18" ry="18"/>
<text text-anchor="middle" x="952.5" y="-15.8" font-family="Times,serif" font-size="14.00">6</text>
</g>
<!-- MQPQOJGR&#45;&gt;BRJPHQHS -->
<g id="edge30" class="edge">
<title>MQPQOJGR&#45;&gt;BRJPHQHS</title>
<path fill="none" stroke="black" d="M973.37,-75.77C970.06,-67 965.89,-55.96 962.15,-46.05"/>
<polygon fill="black" stroke="black" points="965.41,-44.78 958.6,-36.66 958.86,-47.25 965.41,-44.78"/>
</g>
<!-- NFCAHPAY -->
<g id="node32" class="node">
<title>NFCAHPAY</title>
<ellipse fill="none" stroke="black" cx="1006.5" cy="-19.5" rx="18" ry="18"/>
<text text-anchor="middle" x="1006.5" y="-15.8" font-family="Times,serif" font-size="14.00">8</text>
</g>
<!-- MQPQOJGR&#45;&gt;NFCAHPAY -->
<g id="edge31" class="edge">
<title>MQPQOJGR&#45;&gt;NFCAHPAY</title>
<path fill="none" stroke="black" d="M985.62,-75.77C988.94,-67 993.11,-55.96 996.85,-46.05"/>
<polygon fill="black" stroke="black" points="1000.14,-47.25 1000.4,-36.66 993.59,-44.78 1000.14,-47.25"/>
</g>
<!-- VCMKQQTD -->
<g id="node34" class="node">
<title>VCMKQQTD</title>
<ellipse fill="none" stroke="black" cx="1143.5" cy="-93" rx="18" ry="18"/>
</g>
<!-- NBYTVKMW&#45;&gt;VCMKQQTD -->
<g id="edge33" class="edge">
<title>NBYTVKMW&#45;&gt;VCMKQQTD</title>
<path fill="none" stroke="black" d="M1349.37,-158.62C1310.68,-146.48 1216.33,-116.86 1170.02,-102.32"/>
<polygon fill="black" stroke="black" points="1170.97,-98.95 1160.38,-99.3 1168.87,-105.63 1170.97,-98.95"/>
</g>
<!-- SCDMSKET -->
<g id="node38" class="node">
<title>SCDMSKET</title>
<ellipse fill="none" stroke="black" cx="1310.5" cy="-93" rx="18" ry="18"/>
</g>
<!-- NBYTVKMW&#45;&gt;SCDMSKET -->
<g id="edge37" class="edge">
<title>NBYTVKMW&#45;&gt;SCDMSKET</title>
<path fill="none" stroke="black" d="M1355.7,-150.5C1347.72,-140.53 1336.7,-126.75 1327.54,-115.29"/>
<polygon fill="black" stroke="black" points="1330.24,-113.07 1321.26,-107.45 1324.78,-117.45 1330.24,-113.07"/>
</g>
<!-- PCEJGOOZ -->
<g id="node42" class="node">
<title>PCEJGOOZ</title>
<ellipse fill="none" stroke="black" cx="1423.5" cy="-93" rx="18" ry="18"/>
</g>
<!-- NBYTVKMW&#45;&gt;PCEJGOOZ -->
<g id="edge41" class="edge">
<title>NBYTVKMW&#45;&gt;PCEJGOOZ</title>
<path fill="none" stroke="black" d="M1377.49,-150.5C1385.61,-140.53 1396.83,-126.75 1406.16,-115.29"/>
<polygon fill="black" stroke="black" points="1408.94,-117.42 1412.54,-107.45 1403.51,-113 1408.94,-117.42"/>
</g>
<!-- CHXRBCUW -->
<g id="node46" class="node">
<title>CHXRBCUW</title>
<ellipse fill="none" stroke="black" cx="1591.5" cy="-93" rx="18" ry="18"/>
</g>
<!-- NBYTVKMW&#45;&gt;CHXRBCUW -->
<g id="edge45" class="edge">
<title>NBYTVKMW&#45;&gt;CHXRBCUW</title>
<path fill="none" stroke="black" d="M1383.41,-158.74C1422.18,-146.67 1517.71,-116.95 1564.63,-102.36"/>
<polygon fill="black" stroke="black" points="1565.88,-105.63 1574.39,-99.32 1563.8,-98.95 1565.88,-105.63"/>
</g>
<!-- MUVPZYHL -->
<g id="node35" class="node">
<title>MUVPZYHL</title>
<ellipse fill="none" stroke="black" cx="1061.5" cy="-19.5" rx="19.5" ry="19.5"/>
<text text-anchor="middle" x="1061.5" y="-15.8" font-family="Times,serif" font-size="14.00">12</text>
</g>
<!-- VCMKQQTD&#45;&gt;MUVPZYHL -->
<g id="edge34" class="edge">
<title>VCMKQQTD&#45;&gt;MUVPZYHL</title>
<path fill="none" stroke="black" d="M1130.32,-80.51C1117.72,-69.52 1098.47,-52.73 1083.53,-39.71"/>
<polygon fill="black" stroke="black" points="1085.58,-36.85 1075.74,-32.92 1080.98,-42.13 1085.58,-36.85"/>
</g>
<!-- GCDJIXHK -->
<g id="node36" class="node">
<title>GCDJIXHK</title>
<ellipse fill="none" stroke="black" cx="1116.5" cy="-19.5" rx="18" ry="18"/>
<text text-anchor="middle" x="1116.5" y="-15.8" font-family="Times,serif" font-size="14.00">4</text>
</g>
<!-- VCMKQQTD&#45;&gt;GCDJIXHK -->
<g id="edge35" class="edge">
<title>VCMKQQTD&#45;&gt;GCDJIXHK</title>
<path fill="none" stroke="black" d="M1137.37,-75.77C1134.06,-67 1129.89,-55.96 1126.15,-46.05"/>
<polygon fill="black" stroke="black" points="1129.41,-44.78 1122.6,-36.66 1122.86,-47.25 1129.41,-44.78"/>
</g>
<!-- UUJPAPTW -->
<g id="node37" class="node">
<title>UUJPAPTW</title>
<ellipse fill="none" stroke="black" cx="1171.5" cy="-19.5" rx="19.5" ry="19.5"/>
<text text-anchor="middle" x="1171.5" y="-15.8" font-family="Times,serif" font-size="14.00">15</text>
</g>
<!-- VCMKQQTD&#45;&gt;UUJPAPTW -->
<g id="edge36" class="edge">
<title>VCMKQQTD&#45;&gt;UUJPAPTW</title>
<path fill="none" stroke="black" d="M1149.85,-75.77C1153.13,-67.39 1157.22,-56.95 1160.96,-47.41"/>
<polygon fill="black" stroke="black" points="1164.29,-48.5 1164.68,-37.91 1157.77,-45.94 1164.29,-48.5"/>
</g>
<!-- PVERLFPV -->
<g id="node39" class="node">
<title>PVERLFPV</title>
<ellipse fill="none" stroke="black" cx="1228.5" cy="-19.5" rx="19.5" ry="19.5"/>
<text text-anchor="middle" x="1228.5" y="-15.8" font-family="Times,serif" font-size="14.00">13</text>
</g>
<!-- SCDMSKET&#45;&gt;PVERLFPV -->
<g id="edge38" class="edge">
<title>SCDMSKET&#45;&gt;PVERLFPV</title>
<path fill="none" stroke="black" d="M1297.32,-80.51C1284.72,-69.52 1265.47,-52.73 1250.53,-39.71"/>
<polygon fill="black" stroke="black" points="1252.58,-36.85 1242.74,-32.92 1247.98,-42.13 1252.58,-36.85"/>
</g>
<!-- WQXEZIUL -->
<g id="node40" class="node">
<title>WQXEZIUL</title>
<ellipse fill="none" stroke="black" cx="1283.5" cy="-19.5" rx="18" ry="18"/>
<text text-anchor="middle" x="1283.5" y="-15.8" font-family="Times,serif" font-size="14.00">4</text>
</g>
<!-- SCDMSKET&#45;&gt;WQXEZIUL -->
<g id="edge39" class="edge">
<title>SCDMSKET&#45;&gt;WQXEZIUL</title>
<path fill="none" stroke="black" d="M1304.37,-75.77C1301.06,-67 1296.89,-55.96 1293.15,-46.05"/>
<polygon fill="black" stroke="black" points="1296.41,-44.78 1289.6,-36.66 1289.86,-47.25 1296.41,-44.78"/>
</g>
<!-- RIMSTJER -->
<g id="node41" class="node">
<title>RIMSTJER</title>
<ellipse fill="none" stroke="black" cx="1338.5" cy="-19.5" rx="19.5" ry="19.5"/>
<text text-anchor="middle" x="1338.5" y="-15.8" font-family="Times,serif" font-size="14.00">12</text>
</g>
<!-- SCDMSKET&#45;&gt;RIMSTJER -->
<g id="edge40" class="edge">
<title>SCDMSKET&#45;&gt;RIMSTJER</title>
<path fill="none" stroke="black" d="M1316.85,-75.77C1320.13,-67.39 1324.22,-56.95 1327.96,-47.41"/>
<polygon fill="black" stroke="black" points="1331.29,-48.5 1331.68,-37.91 1324.77,-45.94 1331.29,-48.5"/>
</g>
<!-- JVOWBQBO -->
<g id="node43" class="node">
<title>JVOWBQBO</title>
<ellipse fill="none" stroke="black" cx="1395.5" cy="-19.5" rx="19.5" ry="19.5"/>
<text text-anchor="middle" x="1395.5" y="-15.8" font-family="Times,serif" font-size="14.00">13</text>
</g>
<!-- PCEJGOOZ&#45;&gt;JVOWBQBO -->
<g id="edge42" class="edge">
<title>PCEJGOOZ&#45;&gt;JVOWBQBO</title>
<path fill="none" stroke="black" d="M1417.14,-75.77C1413.86,-67.39 1409.77,-56.95 1406.04,-47.41"/>
<polygon fill="black" stroke="black" points="1409.22,-45.94 1402.32,-37.91 1402.7,-48.5 1409.22,-45.94"/>
</g>
<!-- JCHYSZZO -->
<g id="node44" class="node">
<title>JCHYSZZO</title>
<ellipse fill="none" stroke="black" cx="1452.5" cy="-19.5" rx="19.5" ry="19.5"/>
<text text-anchor="middle" x="1452.5" y="-15.8" font-family="Times,serif" font-size="14.00">14</text>
</g>
<!-- PCEJGOOZ&#45;&gt;JCHYSZZO -->
<g id="edge43" class="edge">
<title>PCEJGOOZ&#45;&gt;JCHYSZZO</title>
<path fill="none" stroke="black" d="M1429.93,-76.13C1433.39,-67.61 1437.74,-56.89 1441.69,-47.14"/>
<polygon fill="black" stroke="black" points="1444.96,-48.41 1445.47,-37.82 1438.47,-45.77 1444.96,-48.41"/>
</g>
<!-- IRILCSUU -->
<g id="node45" class="node">
<title>IRILCSUU</title>
<ellipse fill="none" stroke="black" cx="1509.5" cy="-19.5" rx="19.5" ry="19.5"/>
<text text-anchor="middle" x="1509.5" y="-15.8" font-family="Times,serif" font-size="14.00">13</text>
</g>
<!-- PCEJGOOZ&#45;&gt;IRILCSUU -->
<g id="edge44" class="edge">
<title>PCEJGOOZ&#45;&gt;IRILCSUU</title>
<path fill="none" stroke="black" d="M1436.94,-80.82C1450.37,-69.65 1471.27,-52.28 1487.2,-39.04"/>
<polygon fill="black" stroke="black" points="1489.55,-41.63 1495.01,-32.55 1485.08,-36.25 1489.55,-41.63"/>
</g>
<!-- XUOLGAXD -->
<g id="node47" class="node">
<title>XUOLGAXD</title>
<ellipse fill="none" stroke="black" cx="1564.5" cy="-19.5" rx="18" ry="18"/>
<text text-anchor="middle" x="1564.5" y="-15.8" font-family="Times,serif" font-size="14.00">7</text>
</g>
<!-- CHXRBCUW&#45;&gt;XUOLGAXD -->
<g id="edge46" class="edge">
<title>CHXRBCUW&#45;&gt;XUOLGAXD</title>
<path fill="none" stroke="black" d="M1585.37,-75.77C1582.06,-67 1577.89,-55.96 1574.15,-46.05"/>
<polygon fill="black" stroke="black" points="1577.41,-44.78 1570.6,-36.66 1570.86,-47.25 1577.41,-44.78"/>
</g>
<!-- XDZHNQFX -->
<g id="node48" class="node">
<title>XDZHNQFX</title>
<ellipse fill="none" stroke="black" cx="1619.5" cy="-19.5" rx="19.5" ry="19.5"/>
<text text-anchor="middle" x="1619.5" y="-15.8" font-family="Times,serif" font-size="14.00">15</text>
</g>
<!-- CHXRBCUW&#45;&gt;XDZHNQFX -->
<g id="edge47" class="edge">
<title>CHXRBCUW&#45;&gt;XDZHNQFX</title>
<path fill="none" stroke="black" d="M1597.85,-75.77C1601.13,-67.39 1605.22,-56.95 1608.96,-47.41"/>
<polygon fill="black" stroke="black" points="1612.29,-48.5 1612.68,-37.91 1605.77,-45.94 1612.29,-48.5"/>
</g>
<!-- ZYRAGSOD -->
<g id="node49" class="node">
<title>ZYRAGSOD</title>
<ellipse fill="none" stroke="black" cx="1674.5" cy="-19.5" rx="18" ry="18"/>
<text text-anchor="middle" x="1674.5" y="-15.8" font-family="Times,serif" font-size="14.00">1</text>
</g>
<!-- CHXRBCUW&#45;&gt;ZYRAGSOD -->
<g id="edge48" class="edge">
<title>CHXRBCUW&#45;&gt;ZYRAGSOD</title>
<path fill="none" stroke="black" d="M1604.83,-80.51C1617.9,-69.25 1638.03,-51.92 1653.29,-38.77"/>
<polygon fill="black" stroke="black" points="1655.9,-41.14 1661.2,-31.96 1651.34,-35.83 1655.9,-41.14"/>
</g>
<!-- VOVXIUPC -->
<g id="node51" class="node">
<title>VOVXIUPC</title>
<ellipse fill="none" stroke="black" cx="1784.5" cy="-93" rx="18" ry="18"/>
</g>
<!-- IAJAKTSV&#45;&gt;VOVXIUPC -->
<g id="edge50" class="edge">
<title>IAJAKTSV&#45;&gt;VOVXIUPC</title>
<path fill="none" stroke="black" d="M1852.12,-152.44C1839.38,-141.43 1820.02,-124.69 1805.27,-111.95"/>
<polygon fill="black" stroke="black" points="1807.48,-109.23 1797.62,-105.34 1802.9,-114.53 1807.48,-109.23"/>
</g>
<!-- EBUXTKLX -->
<g id="node54" class="node">
<title>EBUXTKLX</title>
<ellipse fill="none" stroke="black" cx="1865.5" cy="-93" rx="18" ry="18"/>
</g>
<!-- IAJAKTSV&#45;&gt;EBUXTKLX -->
<g id="edge53" class="edge">
<title>IAJAKTSV&#45;&gt;EBUXTKLX</title>
<path fill="none" stroke="black" d="M1865.5,-146.69C1865.5,-138.98 1865.5,-129.71 1865.5,-121.11"/>
<polygon fill="black" stroke="black" points="1869,-121.1 1865.5,-111.1 1862,-121.1 1869,-121.1"/>
</g>
<!-- VNCTWGOA -->
<g id="node57" class="node">
<title>VNCTWGOA</title>
<ellipse fill="none" stroke="black" cx="1973.5" cy="-93" rx="18" ry="18"/>
</g>
<!-- IAJAKTSV&#45;&gt;VNCTWGOA -->
<g id="edge56" class="edge">
<title>IAJAKTSV&#45;&gt;VNCTWGOA</title>
<path fill="none" stroke="black" d="M1880.52,-154.26C1898.57,-142.56 1929.07,-122.79 1950.19,-109.1"/>
<polygon fill="black" stroke="black" points="1952.12,-112.02 1958.61,-103.65 1948.31,-106.15 1952.12,-112.02"/>
</g>
<!-- LVNHTMDB -->
<g id="node61" class="node">
<title>LVNHTMDB</title>
<ellipse fill="none" stroke="black" cx="2108.5" cy="-93" rx="18" ry="18"/>
</g>
<!-- IAJAKTSV&#45;&gt;LVNHTMDB -->
<g id="edge60" class="edge">
<title>IAJAKTSV&#45;&gt;LVNHTMDB</title>
<path fill="none" stroke="black" d="M1882.59,-159.07C1924.24,-147.08 2031.28,-116.24 2081.6,-101.75"/>
<polygon fill="black" stroke="black" points="2082.79,-105.04 2091.43,-98.91 2080.85,-98.32 2082.79,-105.04"/>
</g>
<!-- CGJCFDZV -->
<g id="node52" class="node">
<title>CGJCFDZV</title>
<ellipse fill="none" stroke="black" cx="1729.5" cy="-19.5" rx="19.5" ry="19.5"/>
<text text-anchor="middle" x="1729.5" y="-15.8" font-family="Times,serif" font-size="14.00">14</text>
</g>
<!-- VOVXIUPC&#45;&gt;CGJCFDZV -->
<g id="edge51" class="edge">
<title>VOVXIUPC&#45;&gt;CGJCFDZV</title>
<path fill="none" stroke="black" d="M1773.89,-78.21C1766.38,-68.45 1756.12,-55.11 1747.36,-43.72"/>
<polygon fill="black" stroke="black" points="1749.89,-41.27 1741.02,-35.48 1744.34,-45.54 1749.89,-41.27"/>
</g>
<!-- EWZNGTWN -->
<g id="node53" class="node">
<title>EWZNGTWN</title>
<ellipse fill="none" stroke="black" cx="1784.5" cy="-19.5" rx="18" ry="18"/>
<text text-anchor="middle" x="1784.5" y="-15.8" font-family="Times,serif" font-size="14.00">1</text>
</g>
<!-- VOVXIUPC&#45;&gt;EWZNGTWN -->
<g id="edge52" class="edge">
<title>VOVXIUPC&#45;&gt;EWZNGTWN</title>
<path fill="none" stroke="black" d="M1784.5,-74.69C1784.5,-66.61 1784.5,-56.8 1784.5,-47.76"/>
<polygon fill="black" stroke="black" points="1788,-47.65 1784.5,-37.65 1781,-47.65 1788,-47.65"/>
</g>
<!-- OFCVQUPY -->
<g id="node55" class="node">
<title>OFCVQUPY</title>
<ellipse fill="none" stroke="black" cx="1838.5" cy="-19.5" rx="18" ry="18"/>
<text text-anchor="middle" x="1838.5" y="-15.8" font-family="Times,serif" font-size="14.00">2</text>
</g>
<!-- EBUXTKLX&#45;&gt;OFCVQUPY -->
<g id="edge54" class="edge">
<title>EBUXTKLX&#45;&gt;OFCVQUPY</title>
<path fill="none" stroke="black" d="M1859.37,-75.77C1856.06,-67 1851.89,-55.96 1848.15,-46.05"/>
<polygon fill="black" stroke="black" points="1851.41,-44.78 1844.6,-36.66 1844.86,-47.25 1851.41,-44.78"/>
</g>
<!-- INIYAGEN -->
<g id="node56" class="node">
<title>INIYAGEN</title>
<ellipse fill="none" stroke="black" cx="1892.5" cy="-19.5" rx="18" ry="18"/>
<text text-anchor="middle" x="1892.5" y="-15.8" font-family="Times,serif" font-size="14.00">2</text>
</g>
<!-- EBUXTKLX&#45;&gt;INIYAGEN -->
<g id="edge55" class="edge">
<title>EBUXTKLX&#45;&gt;INIYAGEN</title>
<path fill="none" stroke="black" d="M1871.62,-75.77C1874.94,-67 1879.11,-55.96 1882.85,-46.05"/>
<polygon fill="black" stroke="black" points="1886.14,-47.25 1886.4,-36.66 1879.59,-44.78 1886.14,-47.25"/>
</g>
<!-- EOWJIOPR -->
<g id="node58" class="node">
<title>EOWJIOPR</title>
<ellipse fill="none" stroke="black" cx="1946.5" cy="-19.5" rx="18" ry="18"/>
<text text-anchor="middle" x="1946.5" y="-15.8" font-family="Times,serif" font-size="14.00">1</text>
</g>
<!-- VNCTWGOA&#45;&gt;EOWJIOPR -->
<g id="edge57" class="edge">
<title>VNCTWGOA&#45;&gt;EOWJIOPR</title>
<path fill="none" stroke="black" d="M1967.37,-75.77C1964.06,-67 1959.89,-55.96 1956.15,-46.05"/>
<polygon fill="black" stroke="black" points="1959.41,-44.78 1952.6,-36.66 1952.86,-47.25 1959.41,-44.78"/>
</g>
<!-- YSMYSYPK -->
<g id="node59" class="node">
<title>YSMYSYPK</title>
<ellipse fill="none" stroke="black" cx="2000.5" cy="-19.5" rx="18" ry="18"/>
<text text-anchor="middle" x="2000.5" y="-15.8" font-family="Times,serif" font-size="14.00">5</text>
</g>
<!-- VNCTWGOA&#45;&gt;YSMYSYPK -->
<g id="edge58" class="edge">
<title>VNCTWGOA&#45;&gt;YSMYSYPK</title>
<path fill="none" stroke="black" d="M1979.62,-75.77C1982.94,-67 1987.11,-55.96 1990.85,-46.05"/>
<polygon fill="black" stroke="black" points="1994.14,-47.25 1994.4,-36.66 1987.59,-44.78 1994.14,-47.25"/>
</g>
<!-- FADIFJAS -->
<g id="node60" class="node">
<title>FADIFJAS</title>
<ellipse fill="none" stroke="black" cx="2054.5" cy="-19.5" rx="18" ry="18"/>
<text text-anchor="middle" x="2054.5" y="-15.8" font-family="Times,serif" font-size="14.00">7</text>
</g>
<!-- VNCTWGOA&#45;&gt;FADIFJAS -->
<g id="edge59" class="edge">
<title>VNCTWGOA&#45;&gt;FADIFJAS</title>
<path fill="none" stroke="black" d="M1986.51,-80.51C1999.19,-69.32 2018.67,-52.12 2033.54,-39"/>
<polygon fill="black" stroke="black" points="2036.07,-41.44 2041.25,-32.19 2031.43,-36.19 2036.07,-41.44"/>
</g>
<!-- JLROGQSE -->
<g id="node62" class="node">
<title>JLROGQSE</title>
<ellipse fill="none" stroke="black" cx="2108.5" cy="-19.5" rx="18" ry="18"/>
<text text-anchor="middle" x="2108.5" y="-15.8" font-family="Times,serif" font-size="14.00">0</text>
</g>
<!-- LVNHTMDB&#45;&gt;JLROGQSE -->
<g id="edge61" class="edge">
<title>LVNHTMDB&#45;&gt;JLROGQSE</title>
<path fill="none" stroke="black" d="M2108.5,-74.69C2108.5,-66.61 2108.5,-56.8 2108.5,-47.76"/>
<polygon fill="black" stroke="black" points="2112,-47.65 2108.5,-37.65 2105,-47.65 2112,-47.65"/>
</g>
<!-- RYWSAJKR -->
<g id="node63" class="node">
<title>RYWSAJKR</title>
<ellipse fill="none" stroke="black" cx="2162.5" cy="-19.5" rx="18" ry="18"/>
<text text-anchor="middle" x="2162.5" y="-15.8" font-family="Times,serif" font-size="14.00">7</text>
</g>
<!-- LVNHTMDB&#45;&gt;RYWSAJKR -->
<g id="edge62" class="edge">
<title>LVNHTMDB&#45;&gt;RYWSAJKR</title>
<path fill="none" stroke="black" d="M2118.91,-78.21C2126.6,-68.02 2137.23,-53.95 2146.07,-42.25"/>
<polygon fill="black" stroke="black" points="2148.88,-44.33 2152.12,-34.24 2143.3,-40.11 2148.88,-44.33"/>
</g>
<!-- MBJMUWXA -->
<g id="node65" class="node">
<title>MBJMUWXA</title>
<ellipse fill="none" stroke="black" cx="2324.5" cy="-93" rx="18" ry="18"/>
</g>
<!-- OAXMAFQA&#45;&gt;MBJMUWXA -->
<g id="edge64" class="edge">
<title>OAXMAFQA&#45;&gt;MBJMUWXA</title>
<path fill="none" stroke="black" d="M2367.83,-150.17C2360.29,-140.39 2350.02,-127.08 2341.37,-115.87"/>
<polygon fill="black" stroke="black" points="2344.02,-113.58 2335.14,-107.8 2338.48,-117.85 2344.02,-113.58"/>
</g>
<!-- IICEOWFZ -->
<g id="node70" class="node">
<title>IICEOWFZ</title>
<ellipse fill="none" stroke="black" cx="2433.5" cy="-93" rx="18" ry="18"/>
</g>
<!-- OAXMAFQA&#45;&gt;IICEOWFZ -->
<g id="edge69" class="edge">
<title>OAXMAFQA&#45;&gt;IICEOWFZ</title>
<path fill="none" stroke="black" d="M2389.36,-150.17C2397.05,-140.39 2407.51,-127.08 2416.31,-115.87"/>
<polygon fill="black" stroke="black" points="2419.23,-117.82 2422.65,-107.8 2413.72,-113.5 2419.23,-117.82"/>
</g>
<!-- VVTOYTFJ -->
<g id="node73" class="node">
<title>VVTOYTFJ</title>
<ellipse fill="none" stroke="black" cx="2572.5" cy="-93" rx="18" ry="18"/>
</g>
<!-- OAXMAFQA&#45;&gt;VVTOYTFJ -->
<g id="edge72" class="edge">
<title>OAXMAFQA&#45;&gt;VVTOYTFJ</title>
<path fill="none" stroke="black" d="M2395.38,-157.91C2429.28,-145.67 2505.89,-118.03 2546.34,-103.43"/>
<polygon fill="black" stroke="black" points="2547.58,-106.71 2555.8,-100.02 2545.2,-100.12 2547.58,-106.71"/>
</g>
<!-- GYAXDMMH -->
<g id="node66" class="node">
<title>GYAXDMMH</title>
<ellipse fill="none" stroke="black" cx="2216.5" cy="-19.5" rx="18" ry="18"/>
<text text-anchor="middle" x="2216.5" y="-15.8" font-family="Times,serif" font-size="14.00">8</text>
</g>
<!-- MBJMUWXA&#45;&gt;GYAXDMMH -->
<g id="edge65" class="edge">
<title>MBJMUWXA&#45;&gt;GYAXDMMH</title>
<path fill="none" stroke="black" d="M2309.8,-82.52C2293.53,-71.98 2266.54,-54.42 2243.5,-39 2242.23,-38.15 2240.93,-37.27 2239.62,-36.39"/>
<polygon fill="black" stroke="black" points="2241.27,-33.27 2231.03,-30.54 2237.33,-39.06 2241.27,-33.27"/>
</g>
<!-- AXZBAMRO -->
<g id="node67" class="node">
<title>AXZBAMRO</title>
<ellipse fill="none" stroke="black" cx="2270.5" cy="-19.5" rx="18" ry="18"/>
<text text-anchor="middle" x="2270.5" y="-15.8" font-family="Times,serif" font-size="14.00">6</text>
</g>
<!-- MBJMUWXA&#45;&gt;AXZBAMRO -->
<g id="edge66" class="edge">
<title>MBJMUWXA&#45;&gt;AXZBAMRO</title>
<path fill="none" stroke="black" d="M2314.09,-78.21C2306.39,-68.02 2295.76,-53.95 2286.93,-42.25"/>
<polygon fill="black" stroke="black" points="2289.7,-40.11 2280.88,-34.24 2284.11,-44.33 2289.7,-40.11"/>
</g>
<!-- BKFBHRKF -->
<g id="node68" class="node">
<title>BKFBHRKF</title>
<ellipse fill="none" stroke="black" cx="2324.5" cy="-19.5" rx="18" ry="18"/>
<text text-anchor="middle" x="2324.5" y="-15.8" font-family="Times,serif" font-size="14.00">5</text>
</g>
<!-- MBJMUWXA&#45;&gt;BKFBHRKF -->
<g id="edge67" class="edge">
<title>MBJMUWXA&#45;&gt;BKFBHRKF</title>
<path fill="none" stroke="black" d="M2324.5,-74.69C2324.5,-66.61 2324.5,-56.8 2324.5,-47.76"/>
<polygon fill="black" stroke="black" points="2328,-47.65 2324.5,-37.65 2321,-47.65 2328,-47.65"/>
</g>
<!-- RZCSCLHD -->
<g id="node69" class="node">
<title>RZCSCLHD</title>
<ellipse fill="none" stroke="black" cx="2378.5" cy="-19.5" rx="18" ry="18"/>
<text text-anchor="middle" x="2378.5" y="-15.8" font-family="Times,serif" font-size="14.00">6</text>
</g>
<!-- MBJMUWXA&#45;&gt;RZCSCLHD -->
<g id="edge68" class="edge">
<title>MBJMUWXA&#45;&gt;RZCSCLHD</title>
<path fill="none" stroke="black" d="M2334.91,-78.21C2342.6,-68.02 2353.23,-53.95 2362.07,-42.25"/>
<polygon fill="black" stroke="black" points="2364.88,-44.33 2368.12,-34.24 2359.3,-40.11 2364.88,-44.33"/>
</g>
<!-- OUCJVNYH -->
<g id="node71" class="node">
<title>OUCJVNYH</title>
<ellipse fill="none" stroke="black" cx="2433.5" cy="-19.5" rx="19.5" ry="19.5"/>
<text text-anchor="middle" x="2433.5" y="-15.8" font-family="Times,serif" font-size="14.00">14</text>
</g>
<!-- IICEOWFZ&#45;&gt;OUCJVNYH -->
<g id="edge70" class="edge">
<title>IICEOWFZ&#45;&gt;OUCJVNYH</title>
<path fill="none" stroke="black" d="M2433.5,-74.69C2433.5,-67.05 2433.5,-57.86 2433.5,-49.24"/>
<polygon fill="black" stroke="black" points="2437,-49.15 2433.5,-39.15 2430,-49.15 2437,-49.15"/>
</g>
<!-- BJMAZBIQ -->
<g id="node72" class="node">
<title>BJMAZBIQ</title>
<ellipse fill="none" stroke="black" cx="2490.5" cy="-19.5" rx="19.5" ry="19.5"/>
<text text-anchor="middle" x="2490.5" y="-15.8" font-family="Times,serif" font-size="14.00">12</text>
</g>
<!-- IICEOWFZ&#45;&gt;BJMAZBIQ -->
<g id="edge71" class="edge">
<title>IICEOWFZ&#45;&gt;BJMAZBIQ</title>
<path fill="none" stroke="black" d="M2444.49,-78.21C2452.4,-68.28 2463.26,-54.67 2472.44,-43.16"/>
<polygon fill="black" stroke="black" points="2475.26,-45.23 2478.76,-35.23 2469.79,-40.86 2475.26,-45.23"/>
</g>
<!-- YAKDXIHG -->
<g id="node74" class="node">
<title>YAKDXIHG</title>
<ellipse fill="none" stroke="black" cx="2545.5" cy="-19.5" rx="18" ry="18"/>
<text text-anchor="middle" x="2545.5" y="-15.8" font-family="Times,serif" font-size="14.00">2</text>
</g>
<!-- VVTOYTFJ&#45;&gt;YAKDXIHG -->
<g id="edge73" class="edge">
<title>VVTOYTFJ&#45;&gt;YAKDXIHG</title>
<path fill="none" stroke="black" d="M2566.37,-75.77C2563.06,-67 2558.89,-55.96 2555.15,-46.05"/>
<polygon fill="black" stroke="black" points="2558.41,-44.78 2551.6,-36.66 2551.86,-47.25 2558.41,-44.78"/>
</g>
<!-- UCNULXKR -->
<g id="node75" class="node">
<title>UCNULXKR</title>
<ellipse fill="none" stroke="black" cx="2599.5" cy="-19.5" rx="18" ry="18"/>
<text text-anchor="middle" x="2599.5" y="-15.8" font-family="Times,serif" font-size="14.00">3</text>
</g>
<!-- VVTOYTFJ&#45;&gt;UCNULXKR -->
<g id="edge74" class="edge">
<title>VVTOYTFJ&#45;&gt;UCNULXKR</title>
<path fill="none" stroke="black" d="M2578.62,-75.77C2581.94,-67 2586.11,-55.96 2589.85,-46.05"/>
<polygon fill="black" stroke="black" points="2593.14,-47.25 2593.4,-36.66 2586.59,-44.78 2593.14,-47.25"/>
</g>
<!-- FPUKFRDS -->
<g id="node76" class="node">
<title>FPUKFRDS</title>
<ellipse fill="none" stroke="black" cx="2654.5" cy="-19.5" rx="19.5" ry="19.5"/>
<text text-anchor="middle" x="2654.5" y="-15.8" font-family="Times,serif" font-size="14.00">14</text>
</g>
<!-- VVTOYTFJ&#45;&gt;FPUKFRDS -->
<g id="edge75" class="edge">
<title>VVTOYTFJ&#45;&gt;FPUKFRDS</title>
<path fill="none" stroke="black" d="M2585.67,-80.51C2598.28,-69.52 2617.53,-52.73 2632.47,-39.71"/>
<polygon fill="black" stroke="black" points="2635.02,-42.13 2640.25,-32.92 2630.42,-36.85 2635.02,-42.13"/>
</g>
</g>
</svg>
